<svg width="112" height="71" viewBox="0 0 112 71" fill="none" xmlns="http://www.w3.org/2000/svg">
<path d="M1.36567 41.6285L9.05616 68.455C9.26029 69.1671 10.1408 69.4178 10.6894 68.9201L40.2579 42.0935C40.9353 41.4791 40.5005 40.3529 39.586 40.3529H2.32695C1.66221 40.3529 1.18249 40.9895 1.36567 41.6285Z" fill="#8E562E"/>
<path d="M39.7695 45.4884L15.9747 68.2778C15.3237 68.9012 15.765 70 16.6663 70H30.407C30.8032 70 31.162 69.7661 31.3219 69.4036L41.3761 46.6142C41.818 45.6125 40.5602 44.7311 39.7695 45.4884Z" fill="#8E562E"/>
<path d="M1.36567 41.6285L9.05616 68.455C9.26029 69.1671 10.1408 69.4178 10.6894 68.9201L40.2579 42.0935C40.9353 41.4791 40.5005 40.3529 39.586 40.3529H2.32695C1.66221 40.3529 1.18249 40.9895 1.36567 41.6285Z" stroke="#8E562E"/>
<path d="M39.7695 45.4884L15.9747 68.2778C15.3237 68.9012 15.765 70 16.6663 70H30.407C30.8032 70 31.162 69.7661 31.3219 69.4036L41.3761 46.6142C41.818 45.6125 40.5602 44.7311 39.7695 45.4884Z" stroke="#8E562E"/>
<path d="M28.4454 20.648C27.2379 23.5433 26.956 26.3289 27.153 28.7605C27.4239 32.1055 24.9957 36.2353 21.6398 36.2353C19.0415 36.2353 17.0871 33.8824 17.6703 31.3505C18.626 27.2015 20.0384 21.9529 21.6386 18.2189C23.9983 12.7127 34.1176 3.77873 38.8823 0C36.6134 3.98116 31.3496 13.6844 28.4454 20.648Z" fill="#2E8E7A"/>
<ellipse cx="15.3859" cy="12.6063" rx="5.3973" ry="2.60201" transform="rotate(29.9793 15.3859 12.6063)" fill="#2E8E7A"/>
<path d="M58.5198 35.8674C58.5198 37.7698 57.3716 38.721 55.0752 38.721C52.7788 38.721 51.6306 37.7698 51.6306 35.8674V34.1349H53.0574V35.949C53.0574 36.4381 53.2272 36.8186 53.5669 37.0904C53.9066 37.3621 54.4094 37.498 55.0752 37.498C55.741 37.498 56.2438 37.3621 56.5835 37.0904C56.9232 36.8186 57.0931 36.4517 57.0931 35.9897C57.0931 35.5141 57.0387 35.1405 56.93 34.8687C56.8349 34.5833 56.6311 34.2844 56.3185 33.9719L52.7312 30.4661C52.31 30.0449 52.0179 29.6372 51.8548 29.2432C51.7053 28.8355 51.6306 28.326 51.6306 27.7145C51.6306 26.8041 51.9091 26.1043 52.4663 25.6151C53.037 25.1123 53.893 24.861 55.0344 24.861C57.2221 24.861 58.316 25.8121 58.316 27.7145V29.447H56.8892V27.633C56.8892 27.1438 56.7262 26.7633 56.4001 26.4916C56.0875 26.2198 55.6119 26.0839 54.9733 26.0839C54.3346 26.0839 53.8523 26.2198 53.5261 26.4916C53.2136 26.7633 53.0574 27.137 53.0574 27.6126C53.0574 28.0882 53.1049 28.4618 53.2 28.7336C53.2951 29.0054 53.5058 29.2907 53.8319 29.5897L57.4803 33.0954C57.8744 33.5303 58.1461 33.9515 58.2956 34.3591C58.4451 34.7532 58.5198 35.256 58.5198 35.8674ZM60.1514 35.8674V25.1667H61.5781V35.8674C61.5781 36.3838 61.6868 36.7846 61.9042 37.07C62.1352 37.3553 62.5497 37.498 63.1476 37.498C63.7454 37.498 64.2958 37.267 64.7985 36.805C65.3013 36.343 65.5527 35.8946 65.5527 35.4598V25.1667H66.9794V38.4152H66.368L65.838 37.1108C65.5391 37.5999 65.1518 37.994 64.6762 38.2929C64.2142 38.5783 63.7047 38.721 63.1476 38.721C61.1501 38.721 60.1514 37.7698 60.1514 35.8674ZM70.6562 38.4152H69.2295V25.1667H69.8409L70.3505 26.4712C70.6358 25.982 71.0095 25.5947 71.4715 25.3094C71.9335 25.0104 72.4363 24.861 72.9798 24.861C74.3522 24.861 75.2287 25.3569 75.6091 26.3489C76.2614 25.3569 77.1174 24.861 78.1773 24.861C80.0933 24.861 81.0512 25.8121 81.0512 27.7145V38.4152H79.6245V27.7145C79.6245 26.6274 79.1353 26.0839 78.1569 26.0839C77.5862 26.0839 77.0563 26.3149 76.5671 26.7769C76.0915 27.2389 75.8537 27.6873 75.8537 28.1221V38.4152H74.427V27.7145C74.427 26.6274 73.9378 26.0839 72.9594 26.0839C72.3887 26.0839 71.8588 26.3081 71.3696 26.7565C70.894 27.1913 70.6562 27.6262 70.6562 28.061V38.4152ZM84.5067 38.4152H83.0799V25.1667H83.6914L84.2009 26.4712C84.4863 25.982 84.86 25.5947 85.322 25.3094C85.784 25.0104 86.2867 24.861 86.8303 24.861C88.2027 24.861 89.0791 25.3569 89.4596 26.3489C90.1118 25.3569 90.9679 24.861 92.0278 24.861C93.9437 24.861 94.9017 25.8121 94.9017 27.7145V38.4152H93.4749V27.7145C93.4749 26.6274 92.9857 26.0839 92.0074 26.0839C91.4367 26.0839 90.9067 26.3149 90.4175 26.7769C89.942 27.2389 89.7042 27.6873 89.7042 28.1221V38.4152H88.2774V27.7145C88.2774 26.6274 87.7882 26.0839 86.8099 26.0839C86.2392 26.0839 85.7092 26.3081 85.22 26.7565C84.7445 27.1913 84.5067 27.6262 84.5067 28.061V38.4152ZM101.924 35.8674V34.7464H103.351V35.8674C103.351 36.7778 103.072 37.4844 102.515 37.9872C101.958 38.4764 101.122 38.721 100.008 38.721C98.8938 38.721 98.0514 38.4764 97.4807 37.9872C96.91 37.4844 96.6246 36.7778 96.6246 35.8674V27.7145C96.6246 26.8041 96.9032 26.1043 97.4603 25.6151C98.0174 25.1123 98.8531 24.861 99.9673 24.861C101.082 24.861 101.924 25.1123 102.495 25.6151C103.065 26.1043 103.351 26.8041 103.351 27.7145V32.1986H98.0514V35.8674C98.0514 36.9545 98.6968 37.498 99.9877 37.498C101.279 37.498 101.924 36.9545 101.924 35.8674ZM98.0514 27.7145V30.9757H101.924V27.7145C101.924 26.6274 101.279 26.0839 99.9877 26.0839C98.6968 26.0839 98.0514 26.6274 98.0514 27.7145ZM106.714 38.4152H105.287V25.1667H105.899L106.49 26.675C106.924 25.4656 107.617 24.861 108.569 24.861C110.186 24.861 110.994 25.7442 110.994 27.5107V28.8355H109.629V27.4291C109.629 26.5323 109.255 26.0839 108.508 26.0839C108.059 26.0839 107.645 26.3421 107.264 26.8584C106.897 27.3748 106.714 28.1221 106.714 29.1005V38.4152ZM53.2612 53.4152H51.8344V40.1667H54.9121C55.972 40.1667 56.7737 40.4181 57.3173 40.9208C57.8744 41.4236 58.1529 42.1234 58.1529 43.0202V46.4852C58.1529 47.3956 57.8812 48.1022 57.3376 48.605C56.7941 49.0942 55.9856 49.3388 54.9121 49.3388H53.2612V53.4152ZM56.7262 46.4852V43.0202C56.7262 42.5039 56.5699 42.103 56.2574 41.8177C55.9448 41.5323 55.4964 41.3896 54.9121 41.3896H53.2612V48.1158H54.9121C56.1215 48.1158 56.7262 47.5723 56.7262 46.4852ZM59.5789 53.4152V40.1667H61.0057V52.1923H64.7356V53.4152H59.5789ZM71.6666 53.4152H71.0551L70.5252 52.1108C70.2398 52.5999 69.8661 52.994 69.4041 53.2929C68.9421 53.5783 68.4326 53.721 67.8755 53.721C65.9188 53.721 64.9404 52.7698 64.9404 50.8674V48.8292C64.9404 46.9268 65.9188 45.9757 67.8755 45.9757H70.2398V42.633C70.2398 42.1438 70.0836 41.7633 69.771 41.4916C69.4585 41.2198 68.9965 41.0839 68.385 41.0839C67.1757 41.0839 66.571 41.6003 66.571 42.633V43.8355H65.1442V42.7145C65.1442 41.8041 65.4092 41.1043 65.9392 40.6151C66.4827 40.1123 67.298 39.861 68.385 39.861C69.4721 39.861 70.2874 40.1123 70.8309 40.6151C71.388 41.1043 71.6666 41.8041 71.6666 42.7145V53.4152ZM70.2398 47.1986H67.8755C67.3048 47.1986 66.9107 47.3413 66.6933 47.6266C66.4759 47.912 66.3672 48.3128 66.3672 48.8292V50.8674C66.3672 51.3838 66.4759 51.7846 66.6933 52.07C66.9107 52.3553 67.3048 52.498 67.8755 52.498C68.4462 52.498 68.9761 52.2806 69.4653 51.8458C69.9545 51.3974 70.2126 50.9558 70.2398 50.5209V47.1986ZM75.1316 53.4152H73.7048V40.1667H74.3163L74.8259 41.4916C75.4781 40.4045 76.3817 39.861 77.5367 39.861C79.5342 39.861 80.5329 40.8121 80.5329 42.7145V53.4152H79.1061V42.7145C79.1061 42.1981 78.9906 41.7973 78.7596 41.5119C78.5422 41.2266 78.1346 41.0839 77.5367 41.0839C76.9388 41.0839 76.3885 41.3149 75.8857 41.7769C75.383 42.2389 75.1316 42.6873 75.1316 43.1221V53.4152ZM82.2734 40.1667H86.7575V41.3896H83.7001V51.1528C83.7001 51.5333 83.7952 51.8526 83.9855 52.1108C84.1893 52.3689 84.4679 52.498 84.8212 52.498C85.188 52.498 85.4666 52.3757 85.6568 52.1311C85.8471 51.873 85.9422 51.5468 85.9422 51.1528V48.7273H87.369V51.0713C87.369 51.9273 87.138 52.5863 86.676 53.0483C86.2275 53.4968 85.6161 53.721 84.8415 53.721C84.067 53.721 83.442 53.4968 82.9664 53.0483C82.5044 52.5863 82.2734 51.9273 82.2734 51.0713V40.1667ZM94.8697 50.8674C94.8697 52.7698 93.7214 53.721 91.425 53.721C89.1286 53.721 87.9804 52.7698 87.9804 50.8674V49.1349H89.4072V50.949C89.4072 51.4381 89.577 51.8186 89.9167 52.0904C90.2564 52.3621 90.7592 52.498 91.425 52.498C92.0909 52.498 92.5936 52.3621 92.9333 52.0904C93.273 51.8186 93.4429 51.4517 93.4429 50.9897C93.4429 50.5141 93.3885 50.1405 93.2798 49.8687C93.1847 49.5833 92.9809 49.2844 92.6684 48.9719L89.0811 45.4661C88.6598 45.0449 88.3677 44.6372 88.2046 44.2432C88.0552 43.8355 87.9804 43.326 87.9804 42.7145C87.9804 41.8041 88.259 41.1043 88.8161 40.6151C89.3868 40.1123 90.2429 39.861 91.3843 39.861C93.572 39.861 94.6658 40.8121 94.6658 42.7145V44.447H93.2391V42.633C93.2391 42.1438 93.076 41.7633 92.7499 41.4916C92.4374 41.2198 91.9618 41.0839 91.3231 41.0839C90.6845 41.0839 90.2021 41.2198 89.876 41.4916C89.5635 41.7633 89.4072 42.137 89.4072 42.6126C89.4072 43.0882 89.4547 43.4618 89.5499 43.7336C89.645 44.0054 89.8556 44.2907 90.1817 44.5897L93.8302 48.0954C94.2242 48.5303 94.496 48.9515 94.6454 49.3591C94.7949 49.7532 94.8697 50.256 94.8697 50.8674Z" fill="#403731"/>
</svg>
