<svg width="800" height="663" viewBox="0 0 800 663" fill="none" xmlns="http://www.w3.org/2000/svg">
<path d="M1.79735 358.336C-25.2171 85.4815 258.98 -88.9107 404.455 -142L964.185 -46.7466L1000 425.423C949.177 513.507 803.736 677.794 628.552 630.269C453.368 582.745 277.569 630.952 211.568 660.996C152.901 673.799 28.8118 631.191 1.79735 358.336Z" fill="url(#paint0_linear_99_102)"/>
<path d="M194.46 313.867C173.605 248.393 90.5169 192.675 51.5798 173C15.0826 604.33 266.653 634.454 397 595.6C338.177 528.969 215.316 379.34 194.46 313.867Z" fill="#609488" fill-opacity="0.27"/>
<path d="M329 197C312.6 179 336.5 99 373.5 84C410.5 69 580.5 65.5 638.5 73.5C696.5 81.5 734.5 125.5 744 150.5C753.5 175.5 632 367.2 566 278C483.5 166.5 349.5 219.5 329 197Z" fill="#90C79D"/>
<defs>
<linearGradient id="paint0_linear_99_102" x1="904.836" y1="-96.9339" x2="-46.4267" y2="617.636" gradientUnits="userSpaceOnUse">
<stop stop-color="#308D7A"/>
<stop offset="1" stop-color="#CEE8B8"/>
</linearGradient>
</defs>
</svg>
